<?xml version="1.0" encoding="UTF-8"?>
<!DOCTYPE svg PUBLIC "-//W3C//DTD SVG 1.1//EN" "http://www.w3.org/Graphics/SVG/1.1/DTD/svg11.dtd">
<!-- Creator: CorelDRAW -->
<svg xmlns="http://www.w3.org/2000/svg" xml:space="preserve" width="893px" height="607px" version="1.1" style="shape-rendering:geometricPrecision; text-rendering:geometricPrecision; image-rendering:optimizeQuality; fill-rule:evenodd; clip-rule:evenodd"
viewBox="0 0 44.82 30.47"
 xmlns:xlink="http://www.w3.org/1999/xlink"
 xmlns:xodm="http://www.corel.com/coreldraw/odm/2003">
 <defs>
  <style type="text/css">
   <![CDATA[
    .str1 {stroke:#373435;stroke-width:0.1;stroke-miterlimit:2.61313}
    .str0 {stroke:#BD975E;stroke-width:0.1;stroke-miterlimit:2.61313}
    .str2 {stroke:#C79570;stroke-width:0.1;stroke-miterlimit:2.61313}
    .fil2 {fill:#1C191A}
    .fil4 {fill:#4A2B1B}
    .fil5 {fill:#7A4B32}
    .fil6 {fill:#946139}
    .fil3 {fill:#C79570}
    .fil0 {fill:#D9B682}
    .fil1 {fill:black;fill-rule:nonzero}
   ]]>
  </style>
 </defs>
 <g id="Layer_x0020_6">
  <metadata id="CorelCorpID_0Corel-Layer"/>
  <g id="_2106682068752">
   <path class="fil0 str0" d="M20.72 8.47l1.45 0.1 -0.36 -1.22 0.21 -1.98 0.1 -0.14 -0.07 -0.1c0,0 -0.03,-0.31 0.12,-0.34 0.15,-0.04 0.21,-0.05 0.21,-0.05 0,0 -0.1,-0.01 -0.05,-0.15 0.05,-0.13 0.44,-1.33 0.53,-1.38 0.08,-0.04 0.21,-0.11 0.1,-0.24 -0.11,-0.13 0.49,-1.43 0.49,-1.43 0,0 0.14,0.06 0.19,-0.03 0.04,-0.1 0.04,-0.35 -0.02,-0.41 -0.06,-0.07 -0.79,-0.5 -1.09,-0.47 0,0 -0.3,1.03 -0.61,0.86 0,0 -0.17,0.1 0.07,0.21 0,0 0.17,0.13 -0.05,0.56 -0.22,0.44 -0.3,0.75 -0.3,0.75 0,0 -0.23,0.15 -0.24,0.43 0,0 0,0.17 -0.09,0.17 -0.09,0 -0.02,-0.53 -0.02,-0.53l0.05 -0.52 0.09 -0.05c0,0 0.11,-0.07 -0.02,-0.1 -0.12,-0.03 -0.1,0 -0.1,0 0,0 0.02,-0.36 0.06,-0.37 0.05,-0.01 0.05,-0.11 0.05,-0.11l-0.06 -0.07 -0.01 -0.09c0,0 -0.07,-0.4 0.07,-0.51 0.14,-0.11 0,-0.18 0,-0.18l-0.03 -0.1 -0.12 -0.16 -0.19 -0.07c0,0 -0.14,0.17 -0.29,0.09 0,0 -0.21,-0.46 -0.22,0.02 0,0.49 -0.03,1.19 -0.04,1.38 0,0.18 -0.09,1.1 -0.09,1.1l-0.08 0.44 -0.09 0.3c0,0 -0.56,-0.73 -0.62,-0.95l-0.46 -0.78 0.11 -0.05 0.11 -0.17c0,0 -0.17,-0.22 -0.51,-0.25 0,0 -0.65,-0.66 -0.74,-0.96 -0.08,-0.3 -0.02,-0.39 -0.02,-0.39l-0.25 -0.09c0,0 -0.13,-0.31 -0.05,-0.39 0,0 -0.22,0.07 -0.26,0.1 -0.04,0.03 0.17,0.08 -0.39,0.37 -0.56,0.29 -0.37,0.93 -0.37,0.93 0,0 0.48,0.53 0.4,0.51 -0.07,-0.01 -0.06,0.7 0.05,0.76 0.11,0.06 0.25,-0.11 0.25,-0.11 0,0 0.12,-0.16 0.21,0.04 0.09,0.2 0.38,0.63 0.38,0.63 0,0 0.17,0.43 0.36,0.59 0.2,0.15 0.36,0.76 0.36,0.76 0,0 0.24,0.25 0.26,0.31 0.02,0.06 0.25,0.59 0.25,0.59 0,0 0,0.12 0.12,0.25 0.12,0.13 0.11,0.35 0.11,0.35l0.42 2.25 0.73 0.09zm1.28 5.24l-0.02 -0.69c0,0 -0.19,-1.97 -0.08,-2.02 0.1,-0.05 0.38,-0.28 0.38,-0.28l-0.32 -0.21c0,0 -0.55,0.49 -0.85,0.34 0,0 0.16,0.5 0.02,0.66 -0.14,0.17 -1.12,0.93 -1.22,1.06 0,0 0.07,0.7 0.02,0.77 -0.05,0.08 -0.11,0.24 -0.05,0.58 0.06,0.35 0.14,1.93 -0.34,1.99 0,0 0.77,0.64 0.75,0.78l0.09 0.21c0,0 0.69,-0.42 1.3,-0.29 0.61,0.13 0.8,0.13 0.8,0.13l-0.07 -0.69 0.32 -0.48 -0.46 -0.17c0,0 -0.26,-0.39 -0.14,-0.66 0.11,-0.28 -0.07,-0.72 -0.07,-0.72l-0.06 -0.31z"/>
   <g>
    <g>
     <path class="fil1" d="M26.66 13.41c0.21,0.01 0.57,0.09 1.33,0.28 0.13,0.03 0.25,0.05 0.28,0.06 0.02,0 0.2,0.03 0.39,0.06 0.19,0.02 0.38,0.05 0.42,0.05 0.05,0 0.23,0.02 0.41,0.05 0.18,0.04 0.44,0.07 0.59,0.07 0.14,0.01 0.31,0.02 0.38,0.03 0.19,0.02 0.87,0.17 1.03,0.23 0.09,0.03 0.3,0.08 0.47,0.12 0.54,0.1 0.7,0.12 1.55,0.11 0.35,-0.01 0.65,-0.01 0.66,0 0.01,0 0.34,-0.06 0.75,-0.15 0.4,-0.09 0.8,-0.17 0.88,-0.17 0.16,-0.01 0.43,0.11 0.5,0.24 0.03,0.03 0.1,0.09 0.16,0.12 0.06,0.03 0.14,0.1 0.19,0.15 0.1,0.12 0.41,0.22 0.61,0.2 0.09,-0.01 0.29,0 0.44,0.02 0.16,0.02 0.34,0.02 0.4,0 0.52,-0.13 1.11,-0.53 1.39,-0.94 0.1,-0.14 0.21,-0.26 0.24,-0.26 0.03,-0.01 0.22,0.13 0.41,0.29 0.32,0.28 0.35,0.29 0.51,0.28 0.1,0 0.24,-0.04 0.31,-0.08 0.07,-0.04 0.19,-0.07 0.27,-0.07 0.09,0 0.15,-0.02 0.18,-0.06 0.11,-0.14 0.2,-0.18 0.59,-0.26 0.74,-0.15 0.87,-0.19 1.11,-0.33 0.28,-0.18 0.37,-0.22 0.52,-0.27 0.1,-0.02 0.12,-0.05 0.19,-0.3 0.05,-0.16 0.09,-0.3 0.09,-0.32 0,-0.02 -0.04,-0.1 -0.08,-0.18 -0.05,-0.09 -0.1,-0.26 -0.12,-0.43 -0.12,-0.83 -0.13,-0.92 -0.1,-1 0.02,-0.06 0.03,-0.18 0.03,-0.29 -0.01,-0.1 0,-0.32 0.01,-0.48 0.02,-0.19 0.01,-0.38 -0.01,-0.57l-0.04 -0.29 0.18 -0.52c0.21,-0.59 0.24,-0.65 0.38,-0.74 0.11,-0.07 0.26,-0.3 0.26,-0.39 -0.01,-0.03 0.02,-0.13 0.05,-0.21 0.04,-0.12 0.04,-0.18 0.02,-0.26 -0.03,-0.08 -0.02,-0.14 0.04,-0.29 0.05,-0.13 0.06,-0.24 0.06,-0.41 -0.01,-0.19 -0.02,-0.24 -0.1,-0.34 -0.06,-0.07 -0.1,-0.16 -0.1,-0.23 0,-0.07 -0.03,-0.14 -0.06,-0.17 -0.04,-0.04 -0.07,-0.13 -0.09,-0.27 -0.02,-0.18 -0.06,-0.27 -0.19,-0.48 -0.09,-0.15 -0.19,-0.35 -0.21,-0.45 -0.02,-0.09 -0.08,-0.21 -0.12,-0.27 -0.07,-0.09 -0.12,-0.1 -0.3,-0.1 -0.17,0 -0.24,0.03 -0.35,0.12 -0.08,0.06 -0.15,0.1 -0.16,0.1 0,-0.01 -0.04,0.02 -0.07,0.07 -0.03,0.04 -0.1,0.08 -0.15,0.09 -0.09,0.01 -0.11,0.03 -0.14,0.19 -0.03,0.11 -0.07,0.19 -0.1,0.21 -0.13,0.06 -0.58,0.1 -0.61,0.06 -0.04,-0.08 -0.47,-0.03 -0.78,0.1 -0.16,0.06 -0.35,0.13 -0.41,0.15 -0.2,0.06 -0.46,0.29 -0.69,0.62l-0.22 0.33 -0.21 0.01c-0.11,0.01 -0.22,0.03 -0.23,0.04 -0.02,0.02 -0.05,0 -0.08,-0.03 -0.16,-0.19 -0.57,-0.52 -0.73,-0.6 -0.1,-0.05 -0.22,-0.11 -0.25,-0.14 -0.08,-0.05 -0.43,-0.14 -0.56,-0.13 -0.06,0.01 -0.14,0.04 -0.18,0.07 -0.04,0.04 -0.11,0.07 -0.15,0.08 -0.06,0 -0.11,0.04 -0.16,0.16 -0.04,0.09 -0.07,0.19 -0.07,0.21 0,0.06 -0.25,0.37 -0.42,0.53 -0.12,0.11 -0.12,0.11 -0.35,0.06 -0.12,-0.04 -0.24,-0.06 -0.27,-0.06 -0.02,0 -0.1,-0.02 -0.18,-0.03 -0.18,-0.05 -0.85,-0.01 -1.18,0.07 -0.15,0.03 -0.34,0.1 -0.44,0.15 -0.3,0.16 -0.44,0.22 -0.74,0.27 -0.37,0.08 -1.09,0.39 -1.79,0.8 -0.14,0.08 -0.28,0.16 -0.31,0.17 -0.03,0.01 -0.09,0.04 -0.12,0.06 -0.03,0.02 -0.13,0.06 -0.22,0.09 -0.4,0.13 -0.55,0.15 -1.55,0.18 -0.17,0.01 -0.34,0.03 -0.39,0.06 -0.04,0.03 -0.14,0.06 -0.2,0.08 -0.07,0.01 -0.17,0.04 -0.22,0.05 -0.14,0.05 -0.52,0.09 -0.59,0.06 -0.09,-0.04 -0.67,0.13 -0.77,0.22 -0.05,0.05 -0.5,0.07 -0.81,0.03 -0.22,-0.02 -0.35,-0.07 -0.54,-0.18l-0.02 -0.01 0.65 4.91z"/>
     <path class="fil2 str1" d="M24.72 8.06c0,0 0.41,0.24 0.45,0.34 0.05,0.1 0.17,-0.16 0.54,-0.05 0.36,0.12 0.6,0.05 0.83,0.29 0.22,0.24 0.55,-0.05 0.55,-0.05 0,0 1.5,0.86 0.92,3.57 0,0 -0.84,1.48 -1.79,1.56 -0.95,0.07 -2.26,0.19 -2.54,-0.17 0,0 -0.57,-0.23 -0.53,-0.5 0.04,-0.27 0.87,-0.45 0.87,-0.45l0.88 -0.87 0.09 -2.01 -0.27 -1.66z"/>
    </g>
   </g>
   <g>
    <path class="fil3 str2" d="M19.91 12.57l-0.44 -0.1c0,0 -0.42,-0.19 -0.44,-0.29 -0.02,-0.09 -0.42,-0.34 -0.42,-0.34l-0.04 -0.4c0,0 0.04,-0.24 0.16,-0.25 0.13,-0.01 0.18,-0.19 0.18,-0.19 0,0 -0.45,-0.19 -0.6,-0.57 -0.14,-0.39 0.01,-0.74 0.58,-0.98 0,0 -0.4,-0.27 -0.61,-0.62 -0.21,-0.36 0.19,-0.7 0.19,-0.7 0,0 0.23,-0.29 0.43,-0.29 0,0 -0.68,-0.54 -0.69,-0.82 -0.04,-0.95 1.15,-1.11 1.36,-0.89l0.19 0.29c0,0 1.11,0.68 1.16,1.01 0.06,0.32 0.02,0.5 -0.28,0.64 -0.35,0.16 -1.74,-0.23 -1.74,-0.23 0,0 0.61,0.28 1.8,0.28 1.19,0 1.24,0.68 1.24,0.68 0,0 0.01,0.56 -0.39,0.65 -0.39,0.08 -1.44,0.18 -2.43,0.01 1.19,0.18 0.96,0.11 1.44,0.11 0.47,0 0.99,-0.15 1.16,-0.05 0.17,0.1 0.33,0.45 0.26,0.78 -0.08,0.33 -0.59,0.7 -0.87,0.55 -0.27,-0.16 -0.38,-0.3 -0.75,-0.18 -0.37,0.13 -1.28,0.34 -1.28,0.34 0,0 0.81,-0.19 1.28,-0.34 0.46,-0.14 0.69,0.19 0.77,0.39 0.08,0.17 -0.04,0.7 -0.44,0.89 -0.4,0.18 -0.78,0.62 -0.78,0.62z"/>
    <path class="fil3 str2" d="M24.63 7.97c0,0 -0.89,-0.94 -1.08,-1.43 -0.19,-0.49 -0.16,-0.82 -0.97,-1.04 -0.81,-0.22 -1.81,-0.63 -2.12,-1.03 -0.32,-0.39 -0.28,-0.33 -0.38,-0.5 -0.09,-0.17 -0.15,-0.47 -0.64,-0.29 -0.49,0.18 -0.19,1.19 -0.19,1.19 0,0 0.55,1.12 1.01,1.52 0.46,0.4 1.03,0.53 1.1,0.9 0.07,0.37 0.21,0.94 0.21,0.94l0.34 0.29c0,0 0.17,0.58 -0.1,0.75 -0.26,0.18 0.03,0.36 0.03,0.36 0,0 0.25,0.54 0.22,0.66 -0.04,0.12 -0.1,0.22 -0.1,0.22l0.24 0.11 0.08 0.1 -0.17 0.19 -0.21 0.09c0,0 -0.06,1.8 0.14,1.92 0.2,0.12 0.2,0.12 0.2,0.12 0,0 1.61,-0.22 1.95,-0.56 0.34,-0.35 0.34,-0.35 0.34,-0.35l0.49 -0.52c0,0 0.2,-0.54 0.12,-0.72 -0.07,-0.18 -0.12,-0.89 -0.12,-0.89l-0.08 -0.74 -0.03 -0.72c0,0 0.01,-0.31 -0.28,-0.57z"/>
   </g>
   <g>
    <path id="c_L" class="fil4 str1" d="M17.03 15.9c0,0 -3.48,1.85 -4.25,3.14 -0.78,1.28 -2.81,3.05 -4.02,3.54 0,0 -3.52,2.46 -4.31,2.65 0,0 -0.13,0.26 -0.78,0.41 0,0 -0.59,0.41 -1.02,0.52 -0.44,0.11 -1.38,0.34 -1.79,1.04 0,0 -0.57,0.23 -0.79,0.92 -0.21,0.7 1.36,0.69 1.36,0.69 0,0 0.98,-0.23 1.32,-0.41 0.35,-0.19 1.21,-0.23 1.21,-0.23 0,0 0.43,-0.13 0.62,-0.08 0.2,0.05 4.31,-1.35 4.31,-1.35 0,0 1.13,-0.57 2.37,-0.97 1.25,-0.39 1.68,-0.8 1.68,-0.8 0,0 0.78,-0.19 1.52,-0.74 0,0 0.08,-0.16 0.22,-0.13 0.14,0.04 0.99,-0.52 1.35,-0.74 0.35,-0.23 2.68,-1.32 2.68,-1.32l1.83 -4.94c0,0 -0.47,-1.05 -1,-1.19 -0.53,-0.15 -1.26,-0.27 -2.51,-0.01z"/>
    <path id="c_L_0" class="fil5" d="M17.03 15.9c0,0 -3.48,1.85 -4.25,3.14 -0.78,1.28 -2.81,3.05 -4.02,3.54 0,0 -3.52,2.46 -4.31,2.65 0,0 -0.13,0.26 -0.78,0.41 0,0 -0.59,0.41 -1.02,0.52 -0.44,0.11 -1.38,0.34 -1.79,1.04 0,0 -0.57,0.23 -0.79,0.92 -0.13,0.42 0.38,0.58 0.81,0.65 0.91,-0.59 3.22,-1.56 4.28,-1.82 1.35,-0.34 0.47,0.37 2.3,-0.84 1.01,-0.67 1.58,-0.12 2.86,-1.05 1.31,-0.94 1.95,-0.84 3.31,-1.38 0.82,-0.33 0.28,-1.14 1.99,-1.93 0.1,-0.04 2.16,-1.71 2.18,-1.73 0.14,-0.16 0.94,-0.9 1.04,-0.75 0.33,0.5 0.26,-0.22 0.38,0.54 0.06,0.39 0.1,0.26 0.13,0.5l1.19 -3.21c0,0 -0.47,-1.05 -1,-1.19 -0.53,-0.15 -1.26,-0.27 -2.51,-0.01zm-16.15 12.87c0.04,0 0.08,0.01 0.11,0.01 -0.01,-0.01 -0.02,-0.02 -0.03,-0.04 -0.02,-0.03 -0.06,0.02 -0.08,0.03z"/>
    <path class="fil6" d="M10.75 22.98c0,0 2.34,-1.7 2.46,-1.93 0.2,-0.38 0.75,-1.03 1.15,-1.57 0.4,-0.53 2.96,-2.32 3.53,-2.58 0.42,-0.2 0.67,-0.29 1.09,-0.01 0.34,0.24 -0.52,0.74 -0.76,0.96 -1.16,1.1 -2.73,0.87 -3.6,1.78 -0.2,0.2 -1.03,1.07 -1.13,1.43 -0.12,0.43 -2.04,2.15 -2.65,2.33 -0.36,0.11 -1.32,0.69 -1.37,0.56 -0.05,-0.1 0.25,-0.59 1.02,-0.9 0.04,-0.02 0.28,-0.11 0.29,-0.11l-0.03 0.04z"/>
   </g>
   <path class="fil4 str1" d="M23.37 20.02c0.88,-0.16 1.52,0.35 1.48,1.01 -0.04,0.66 -0.02,1.16 -0.02,1.16 0,0 0.05,0.56 0.12,0.69 0.06,0.13 0.36,0.56 0.23,1.27 0,0 0.12,0.89 0.3,1.19 0.19,0.29 0.59,1.63 0.59,1.63 0,0 0.28,0.47 0.4,0.53 0.12,0.07 0.55,0.26 0.54,0.99 0,0 -0.1,0.22 0.19,0.42 0.29,0.19 0.39,-0.06 0.39,-0.06 0,0 -0.14,0.18 -0.05,0.29 0.09,0.12 0.27,0.34 0.47,0.3 0.2,-0.05 0.26,-0.08 0.26,-0.08 0,0 -0.24,0.22 -0.12,0.2 0.12,-0.02 0.46,0.09 0.56,0.07 0.11,-0.02 0.23,-0.14 0.23,-0.14 0,0 0.09,0.37 -0.62,0.26 -0.7,-0.1 -1.31,-0.72 -1.31,-0.72l-0.18 -0.01c0,0 -1.15,-0.22 -1.61,-0.6 -0.46,-0.38 -1.28,-0.91 -1.28,-0.91l-0.63 -0.59c0,0 -0.17,0.3 0.17,0.34 0,0 -0.32,0.06 -0.36,0.01 -0.03,-0.06 0.08,-0.55 0.14,-0.55l-0.18 -0.26c0,0 -0.65,-1.06 -0.74,-1.96 -0.08,-0.9 1.03,-4.48 1.03,-4.48z"/>
   <path class="fil4 str1" d="M22.96 16.7c0,0 1.27,-1.7 3.23,-0.92 1.95,0.78 5.77,3.4 6.55,3.32 0.78,-0.07 2.74,0.66 2.74,0.66 0,0 3.44,0.59 3.63,0.78 0,0 4.22,-0.04 5.65,1.01 0,0 0.05,0.2 -0.16,0.33 0,0 0.01,0.51 -0.15,0.6 -0.15,0.09 -0.92,0.21 -1.19,0.22 -0.27,0.01 -1.72,0.07 -1.97,0.01 -0.26,-0.06 -0.62,-0.17 -1.07,-0.03 -0.46,0.13 -3.37,0.19 -3.37,0.19 0,0 -2.44,-0.13 -2.6,-0.24 0,0 -0.04,-0.14 -0.09,0.1 -0.05,0.23 -0.2,-0.16 -0.2,-0.16l-0.32 0.01c0,0 -0.05,0.13 -0.12,0.05 -0.07,-0.09 -0.43,0.02 -0.43,0.02 0,0 -0.84,-0.15 -1.04,-0.1 -0.21,0.05 -0.3,-0.07 -0.3,-0.07 0,0 -0.17,0.04 -0.25,0.01 -0.09,-0.04 -0.58,-0.12 -0.85,-0.32 -0.26,-0.2 -0.14,0.03 -0.44,0.02 -0.29,-0.01 -1.02,-0.3 -1.02,-0.3l-1.58 -0.23c0,0 -2.64,-0.7 -2.58,-0.75 0.07,-0.06 -0.22,-0.11 -0.22,-0.11 0,0 -0.52,-0.77 -1.04,-0.76 -0.52,0.01 -1.35,-2.77 -0.81,-3.34z"/>
   <path class="fil5" d="M22.96 16.7c0,0 1.27,-1.7 3.23,-0.92 1.95,0.78 5.77,3.4 6.55,3.32 0.78,-0.07 2.74,0.66 2.74,0.66 0,0 3.44,0.59 3.63,0.78 0,0 4.22,-0.04 5.65,1.01 0,0 0.05,0.2 -0.16,0.33 0,0 0,0.39 -0.1,0.55 -0.86,-0.21 -2.4,0.09 -2.8,-0.13 -0.41,-0.23 -1.46,-0.35 -1.92,-0.21 -0.42,0.13 -2.08,0.33 -2.42,0.19 -0.43,-0.19 -1.08,-0.08 -1.22,-0.13 -0.14,-0.05 -2.49,-0.42 -2.66,-0.42 -0.57,0 -0.63,-0.09 -0.94,-0.11 -0.11,-0.01 -1.31,-0.51 -1.56,-0.58 -0.87,-0.28 -0.87,0.11 -1.14,-0.06 -0.36,-0.23 -1.78,-0.36 -2,-0.52 -0.61,-0.43 -1.83,-0.5 -2.25,-0.84 -0.41,-0.32 -1.16,-0.6 -1.56,-0.95 -0.46,-0.41 -0.43,-0.71 -0.57,-0.99 -0.17,-0.34 -0.05,-1.2 -0.43,-0.98 -0.05,0.03 -0.09,0.06 -0.14,0.09 0.02,-0.03 0.04,-0.06 0.07,-0.09z"/>
   <path class="fil6" d="M28.86 18.01c-0.43,0.62 -0.11,1.42 0.13,0.24 0.02,-0.08 0.03,-0.47 -0.13,-0.24z"/>
   <path class="fil6" d="M31.25 19.24c-0.2,0.12 -0.36,1.36 0.11,0.4 0.26,-0.55 -0.24,-0.32 -0.11,-0.4z"/>
   <path class="fil6" d="M35.95 20.25c-0.21,0.06 -0.32,1.54 0.3,0.54 0.15,-0.24 -0.24,-0.55 -0.3,-0.54z"/>
   <path class="fil6" d="M24.38 17.46c-0.32,0.58 -0.05,0.94 0.01,0.47 0.02,-0.18 0.2,-0.01 0.06,-0.43 -0.01,-0.05 -0.03,-0.1 -0.07,-0.04z"/>
   <path class="fil6" d="M25.19 18.43c0.37,0.23 -0.17,0.69 0.36,0.62 0.58,-0.07 0.03,-1.12 -0.29,-0.7 -0.02,0.02 -0.06,0.08 -0.07,0.08z"/>
   <path class="fil6" d="M41.66 21.11c-0.65,0.12 -0.71,-0.3 -1.28,-0.1 -0.15,0.05 -0.17,0.31 0.16,0.38 0.33,0.08 0.73,0.2 1.07,0.15 0.16,-0.02 0.54,-0.07 0.66,0.02 0.04,0.03 1.16,0.17 0.96,-0.08 -0.13,-0.18 -0.1,-0.13 -0.38,-0.25 -0.16,-0.07 -1.01,-0.15 -1.19,-0.12z"/>
   <g>
    <path class="fil4 str1" d="M22.92 16.98c0,0 1.13,0.72 0.91,2.23 -0.22,1.51 -0.65,2.04 -0.72,2.36 -0.07,0.31 -0.18,0.89 -0.26,0.96 -0.08,0.06 -0.09,0.68 -0.22,0.82 0,0 -0.16,0.75 -0.38,1.14 0,0 -0.02,0.28 -0.13,0.67 -0.12,0.38 -0.04,0.43 -0.21,0.61 0,0 0.06,0.36 -0.14,0.51 0,0 -0.1,0.49 -0.25,0.54 0,0 0.03,0.4 -0.15,0.63 0,0 -0.19,0.17 0.1,0.47 0,0 -0.06,0.93 -0.35,1.36l-0.2 0.35c0,0 0.03,0.15 0.05,0.23 0.01,0.09 -0.17,-0.1 -0.17,-0.1 0,0 -0.1,0.23 -0.2,0.25 -0.1,0.02 0.07,0.16 0.07,0.16 0,0 0.03,0.07 -0.06,0.07 -0.09,0 -0.16,-0.15 -0.16,-0.15 0,0 -0.33,0.37 -0.72,0.32 -0.38,-0.05 -0.98,-0.39 -1.07,-0.6 -0.09,-0.21 -0.15,-1.03 -0.1,-1.35 0,0 -0.17,0.06 -0.23,-0.3 -0.07,-0.35 -0.17,-1.45 -0.21,-1.64 -0.04,-0.18 0.02,-0.22 0.02,-0.22 0,0 -0.12,-0.45 -0.09,-0.63 0.03,-0.18 0.06,-0.27 0.02,-0.54 -0.05,-0.28 0,-0.96 0.18,-1.16 0.19,-0.2 0.13,-0.88 0.13,-0.88 0,0 0.04,-0.59 0.1,-0.84 0.06,-0.24 0.06,-0.28 0.06,-0.28l0.1 -0.32c0,0 -0.01,-0.38 0.03,-0.59 0.04,-0.2 0.11,-1.09 0.13,-1.25 0.02,-0.17 0.09,-1.03 0.36,-1.32 0.27,-0.29 0.99,-1.54 1.65,-1.75 0.66,-0.2 1.13,-0.15 2.11,0.24z"/>
    <path class="fil5" d="M22.92 16.98c0,0 0.1,0.06 0.23,0.19 0.13,0.37 0.18,0.83 0.23,0.84 0.28,0.06 -0.23,1.2 -0.28,1.45 -0.21,0.88 -0.7,1.65 -0.79,2.33 -0.04,0.23 -0.37,1.12 -0.37,1.13 0.03,0.8 -0.19,1.13 -0.2,1.37 -0.01,0.68 -1.38,3.26 -0.8,3.69 0.52,0.4 -0.1,0.53 -0.07,0.97 0.01,0.16 -0.93,1.2 -0.97,1.2 -0.24,0.03 -0.18,0.13 -0.15,0.26l-0.02 0c-0.38,-0.05 -0.98,-0.39 -1.07,-0.6 -0.01,-0.03 -0.03,-0.07 -0.04,-0.13 0.1,-0.13 0.27,-0.34 0.33,-0.4 0.07,-0.05 0.24,-0.38 0.14,-0.15 0.15,-0.33 0.22,-2.45 0.11,-2.85 -0.18,-0.63 -0.41,-1.35 -0.17,-1.95 0.27,-0.71 0.09,-1.78 0.47,-2.68 0.09,-0.21 0.12,-0.76 0.39,-1.39 0.2,-0.47 -0.35,-1.17 0.37,-1.79 0.46,-0.39 0.45,-1 1.03,-1.48 0.05,-0.05 0.04,-0.19 0.06,-0.36 0.43,-0.04 0.87,0.07 1.57,0.35z"/>
    <path class="fil6" d="M20.31 23.27c0,0.64 -0.32,1.42 -0.32,2.4 0,0.25 -0.17,1.08 0.29,0.72 0.17,-0.14 0.21,-1.43 0.33,-1.76 0.14,-0.4 0.08,-0.64 0.32,-1 0.09,-0.11 -0.15,-0.72 -0.46,-0.62 -0.02,0.08 -0.16,0.23 -0.16,0.26z"/>
    <path class="fil6" d="M21.92 18.23c-0.12,0.45 -0.49,0.92 -0.67,1.6 -0.05,0.17 -0.32,0.71 0.06,0.55 0.15,-0.07 0.42,-0.94 0.56,-1.15 0.17,-0.25 0.17,-0.43 0.41,-0.63 0.08,-0.06 0.03,-0.52 -0.21,-0.51 -0.02,0.05 -0.14,0.12 -0.15,0.14z"/>
   </g>
  </g>
 </g>
</svg>
